<svg width="64" height="64" viewBox="0 0 64 64" fill="none" xmlns="http://www.w3.org/2000/svg">
<rect width="64" height="64" rx="9" fill="#006638"/>
<rect width="64" height="64" rx="9" fill="url(#paint0_linear_3098_156)" fill-opacity="0.2"/>
<path d="M12.0647 47.16C11.158 47.16 10.3447 46.8267 9.62469 46.16C8.90469 45.4667 8.54469 44.3067 8.54469 42.68C8.54469 41.6133 8.69135 40.4267 8.98469 39.12C9.30469 37.8133 9.67802 36.4667 10.1047 35.08C10.558 33.6667 11.0114 32.3067 11.4647 31C11.918 29.6933 12.2914 28.5067 12.5847 27.44C12.878 26.3733 13.0247 25.5333 13.0247 24.92C13.0247 24.2 12.7447 23.84 12.1847 23.84C11.518 23.84 10.8914 24.2267 10.3047 25C9.71802 25.7467 9.06469 26.8 8.34469 28.16L8.10469 28.08C8.10469 25.9733 8.66469 24.1467 9.78469 22.6C10.9047 21.0267 12.4114 19.8133 14.3047 18.96C16.2247 18.1067 18.358 17.68 20.7047 17.68C23.078 17.68 24.998 18.0933 26.4647 18.92C27.958 19.72 29.0514 20.7733 29.7447 22.08C30.4647 23.36 30.8247 24.7333 30.8247 26.2C30.8247 27.4533 30.5847 28.7067 30.1047 29.96C29.6514 31.1867 28.9847 32.3067 28.1047 33.32C27.2514 34.3333 26.238 35.1467 25.0647 35.76C23.8914 36.3733 22.598 36.68 21.1847 36.68C19.718 36.68 18.198 36.3067 16.6247 35.56C16.278 36.8667 15.9714 38.2 15.7047 39.56C15.438 40.8933 15.3047 42.2667 15.3047 43.68C15.3047 44.3733 15.3447 45.0667 15.4247 45.76C14.9714 46.2133 14.438 46.56 13.8247 46.8C13.238 47.04 12.6514 47.16 12.0647 47.16ZM18.4647 32.68C19.5314 32.68 20.4647 32.3867 21.2647 31.8C22.0647 31.1867 22.678 30.4267 23.1047 29.52C23.558 28.5867 23.7847 27.6533 23.7847 26.72C23.7847 25.6267 23.4247 24.6533 22.7047 23.8C22.0114 22.9467 20.8647 22.52 19.2647 22.52C19.0514 22.52 18.798 22.5333 18.5047 22.56C18.238 22.5867 17.958 22.6267 17.6647 22.68C17.878 23.3467 18.0114 24.0133 18.0647 24.68C18.1447 25.32 18.1847 25.9467 18.1847 26.56C18.1847 27.6267 18.1047 28.6533 17.9447 29.64C17.7847 30.6267 17.598 31.6 17.3847 32.56C17.758 32.64 18.118 32.68 18.4647 32.68ZM51.2528 47.28C50.3195 47.28 49.5061 47.0533 48.8128 46.6C48.1461 46.12 47.5595 45.5067 47.0528 44.76C46.5728 44.0133 46.1461 43.2 45.7728 42.32C45.4261 41.4133 45.0928 40.5467 44.7728 39.72C44.2928 38.3867 43.8528 37.2267 43.4528 36.24C43.0528 35.2267 42.6128 34.3733 42.1328 33.68C41.6261 35.7067 41.2128 37.6533 40.8928 39.52C40.5995 41.3867 40.4128 43.4667 40.3328 45.76C39.8528 46.2133 39.3061 46.56 38.6928 46.8C38.1061 47.04 37.5061 47.16 36.8928 47.16C35.9595 47.16 35.1328 46.84 34.4128 46.2C33.6928 45.5333 33.3328 44.4267 33.3328 42.88C33.3328 41.8133 33.4928 40.6133 33.8128 39.28C34.1328 37.9467 34.5195 36.5733 34.9728 35.16C35.4528 33.7467 35.9328 32.3733 36.4128 31.04C36.8928 29.7067 37.2928 28.5067 37.6128 27.44C37.9328 26.3467 38.0928 25.48 38.0928 24.84C38.0928 24.1733 37.8661 23.84 37.4128 23.84C36.9061 23.84 36.2928 24.2267 35.5728 25C34.8528 25.7467 34.1195 26.8 33.3728 28.16L33.1328 28.08C33.1328 26.48 33.4795 25.0533 34.1728 23.8C34.8661 22.5467 35.7995 21.4933 36.9728 20.64C38.1728 19.76 39.5461 19.0933 41.0928 18.64C42.6661 18.1867 44.3061 17.96 46.0128 17.96C48.2795 17.96 50.1195 18.32 51.5328 19.04C52.9461 19.7333 53.9861 20.64 54.6528 21.76C55.3461 22.8533 55.6928 24.0267 55.6928 25.28C55.6928 26.56 55.3595 27.8133 54.6928 29.04C54.0528 30.2667 53.1328 31.2933 51.9328 32.12C50.7595 32.92 49.3595 33.3867 47.7328 33.52C48.2928 33.9467 48.7728 34.4933 49.1728 35.16C49.5728 35.8 49.9861 36.5333 50.4128 37.36C50.7861 38.1067 51.2261 38.8267 51.7328 39.52C52.2395 40.1867 52.9328 40.52 53.8128 40.52C54.2661 40.52 54.6395 40.4133 54.9328 40.2C55.2261 39.96 55.4795 39.5733 55.6928 39.04L55.9328 39.16C56.0661 39.56 56.1461 39.9467 56.1728 40.32C56.2261 40.6933 56.2528 41.04 56.2528 41.36C56.2528 43.04 55.7861 44.4533 54.8528 45.6C53.9195 46.72 52.7195 47.28 51.2528 47.28ZM44.1328 30C45.0928 30 45.9195 29.7867 46.6128 29.36C47.3328 28.9067 47.8795 28.36 48.2528 27.72C48.6528 27.0533 48.8528 26.3867 48.8528 25.72C48.8528 24.8933 48.5328 24.1733 47.8928 23.56C47.2795 22.92 46.2661 22.6 44.8528 22.6C44.6395 22.6 44.4128 22.6133 44.1728 22.64C43.9595 22.64 43.7461 22.6533 43.5328 22.68C43.5595 22.8667 43.5728 23.0533 43.5728 23.24C43.5728 23.4 43.5728 23.48 43.5728 23.48C43.5728 24.7067 43.5195 25.8933 43.4128 27.04C43.3328 28.1867 43.2128 29.1467 43.0528 29.92C43.2395 29.9467 43.4128 29.9733 43.5728 30C43.7595 30 43.9461 30 44.1328 30Z" fill="white"/>
<defs>
<linearGradient id="paint0_linear_3098_156" x1="32" y1="5.05263" x2="26.3879" y2="76.5451" gradientUnits="userSpaceOnUse">
<stop stop-opacity="0"/>
<stop offset="0.697115" stop-color="#EFB11D"/>
</linearGradient>
</defs>
</svg>
